<svg width="1544" height="500" viewBox="0 0 1544 500" xmlns="http://www.w3.org/2000/svg">
  <defs>
    <linearGradient id="bg" x1="0" y1="0" x2="1" y2="1">
      <stop offset="0" stop-color="#11203a"/>
      <stop offset="1" stop-color="#0b1523"/>
    </linearGradient>
    <radialGradient id="glow" cx="0.5" cy="0.5" r="0.5">
      <stop offset="0" stop-color="#6366f1" stop-opacity="0.4"/>
      <stop offset="1" stop-color="#6366f1" stop-opacity="0"/>
    </radialGradient>
    <linearGradient id="tile" x1="0" y1="0" x2="1" y2="1">
      <stop offset="0" stop-color="#7c7ef6"/>
      <stop offset="1" stop-color="#5457e0"/>
    </linearGradient>
    <filter id="sh" x="-40%" y="-40%" width="180%" height="180%">
      <feDropShadow dx="0" dy="16" stdDeviation="26" flood-color="#000000" flood-opacity="0.45"/>
    </filter>
  </defs>

  <rect width="1544" height="500" fill="url(#bg)"/>
  <circle cx="1340" cy="250" r="230" fill="url(#glow)"/>

  <text x="100" y="172" font-family="Helvetica, Arial, sans-serif" font-size="24" font-weight="bold" letter-spacing="4" fill="#8b8ef7">dhanendranrajagopal.me</text>
  <text x="96" y="284" font-family="Helvetica, Arial, sans-serif" font-size="78" font-weight="bold" fill="#ffffff">Interactive Quiz &amp; Poll</text>
  <rect x="100" y="312" width="150" height="7" rx="3.5" fill="#6366f1"/>
  <text x="100" y="374" font-family="Helvetica, Arial, sans-serif" font-size="30" fill="#c4cedd">Native quiz &amp; poll blocks — no third-party embeds,</text>
  <text x="100" y="414" font-family="Helvetica, Arial, sans-serif" font-size="30" fill="#c4cedd">your data stays on your site.</text>

  <rect x="1190" y="100" width="300" height="300" rx="66" fill="url(#tile)" filter="url(#sh)"/>
  <g transform="translate(1190,100) scale(1.171)">
    <rect x="74" y="77" width="24" height="24" rx="7" fill="#ffffff"/>
    <path d="M79 89 L85 95 L95 82" fill="none" stroke="#5457e0" stroke-width="4.5" stroke-linecap="round" stroke-linejoin="round"/>
    <rect x="112" y="82" width="74" height="14" rx="7" fill="#ffffff"/>
    <rect x="74" y="117" width="24" height="24" rx="7" fill="none" stroke="#ffffff" stroke-width="5"/>
    <rect x="112" y="122" width="74" height="14" rx="7" fill="#ffffff" fill-opacity="0.5"/>
    <rect x="74" y="157" width="24" height="24" rx="7" fill="none" stroke="#ffffff" stroke-width="5"/>
    <rect x="112" y="162" width="74" height="14" rx="7" fill="#ffffff" fill-opacity="0.5"/>
  </g>
</svg>
